<svg width="150" height="150" viewBox="0 0 150 150" fill="none" xmlns="http://www.w3.org/2000/svg">
<g id="&#237;&#148;&#132;&#235;&#161;&#156;&#237;&#149;&#132; &#236;&#130;&#172;&#236;&#167;&#132; &#235;&#147;&#177;&#235;&#161;&#157;">
<circle id="Ellipse 20" cx="75" cy="75" r="75" fill="#D9D9D9"/>
<path id="Vector" fill-rule="evenodd" clip-rule="evenodd" d="M50 55C50 53.6739 50.5268 52.4021 51.4645 51.4645C52.4021 50.5268 53.6739 50 55 50H95C96.3261 50 97.5979 50.5268 98.5355 51.4645C99.4732 52.4021 100 53.6739 100 55V95C100 95.8257 99.7962 96.6386 99.4067 97.3667C98.9788 98.1629 98.343 98.8283 97.5671 99.292C96.7911 99.7557 95.904 100 95 100H55C53.6739 100 52.4021 99.4732 51.4645 98.5355C50.5268 97.5979 50 96.3261 50 95V55ZM66.1667 60.4733L65 59.3067L53.3333 70.9733V55C53.3333 54.558 53.5089 54.134 53.8215 53.8215C54.134 53.5089 54.558 53.3333 55 53.3333H95C95.442 53.3333 95.866 53.5089 96.1785 53.8215C96.4911 54.134 96.6667 54.558 96.6667 55V83.3333H89.0233L66.18 60.4867L66.1667 60.4733Z" fill="black"/>
</g>
</svg>
