<svg width="190" height="190" viewBox="0 0 190 190" fill="none" xmlns="http://www.w3.org/2000/svg">
<rect width="190" height="190" rx="20" fill="#dfdfdf"/>
<path d="M106.793 77.3101C105.229 77.3101 103.729 77.9313 102.624 79.0371C101.518 80.1429 100.896 81.6427 100.896 83.2066C100.896 84.7705 101.518 86.2703 102.624 87.3761C103.729 88.4819 105.229 89.1032 106.793 89.1032C108.357 89.1032 109.857 88.4819 110.963 87.3761C112.068 86.2703 112.69 84.7705 112.69 83.2066C112.69 81.6427 112.068 80.1429 110.963 79.0371C109.857 77.9313 108.357 77.3101 106.793 77.3101Z" fill="#414141"/>
<path fill-rule="evenodd" clip-rule="evenodd" d="M65.5176 71.4136C65.5176 69.8498 66.1388 68.35 67.2446 67.2441C68.3505 66.1383 69.8503 65.5171 71.4141 65.5171H118.587C120.15 65.5171 121.65 66.1383 122.756 67.2441C123.862 68.35 124.483 69.8498 124.483 71.4136V118.586C124.483 119.56 124.243 120.519 123.783 121.377C123.279 122.316 122.529 123.101 121.614 123.648C120.699 124.195 119.653 124.483 118.587 124.483H71.4141C69.8503 124.483 68.3505 123.861 67.2446 122.756C66.1388 121.65 65.5176 120.15 65.5176 118.586V71.4136ZM84.5831 77.8684L83.2072 76.4925L69.4486 90.2512V71.4136C69.4486 70.8924 69.6557 70.3924 70.0243 70.0238C70.3929 69.6552 70.8928 69.4481 71.4141 69.4481H118.587C119.108 69.4481 119.608 69.6552 119.976 70.0238C120.345 70.3924 120.552 70.8924 120.552 71.4136V104.827H111.538L84.5988 77.8841L84.5831 77.8684Z" fill="#414141"/>
</svg>
