<svg width="20" height="20" viewBox="0 0 20 20" fill="none" xmlns="http://www.w3.org/2000/svg">
<path d="M3.61111 0C2.65338 0 1.73488 0.380455 1.05767 1.05767C0.380455 1.73488 0 2.65338 0 3.61111V16.3889C0 17.3466 0.380455 18.2651 1.05767 18.9423C1.73488 19.6195 2.65338 20 3.61111 20H16.3889C17.3466 20 18.2651 19.6195 18.9423 18.9423C19.6195 18.2651 20 17.3466 20 16.3889V3.61111C20 2.65338 19.6195 1.73488 18.9423 1.05767C18.2651 0.380455 17.3466 0 16.3889 0H3.61111ZM15.8667 6.97778L8.36222 14.4744C8.20597 14.6305 7.99417 14.7182 7.77333 14.7182C7.5525 14.7182 7.34069 14.6305 7.18444 14.4744L4.13333 11.4222C3.98613 11.2643 3.906 11.0553 3.90981 10.8394C3.91361 10.6235 4.00107 10.4175 4.15375 10.2649C4.30643 10.1122 4.51242 10.0247 4.72831 10.0209C4.9442 10.0171 5.15314 10.0972 5.31111 10.2444L7.77444 12.7067L14.6889 5.79889C14.7664 5.72156 14.8583 5.66024 14.9595 5.61844C15.0607 5.57665 15.1691 5.55519 15.2786 5.55529C15.388 5.55539 15.4964 5.57706 15.5975 5.61904C15.6986 5.66103 15.7904 5.72252 15.8678 5.8C15.9451 5.87748 16.0064 5.96943 16.0482 6.07061C16.09 6.17179 16.1115 6.2802 16.1114 6.38967C16.1113 6.49914 16.0896 6.60752 16.0476 6.70862C16.0056 6.80972 15.9441 6.90156 15.8667 6.97889V6.97778Z" fill="#F99E29"/>
</svg>
