<svg width="45" height="45" viewBox="0 0 45 45" fill="none" xmlns="http://www.w3.org/2000/svg">
<path fill-rule="evenodd" clip-rule="evenodd" d="M14.8308 4.67582C15.8704 5.50082 17.2725 6.65498 18.7996 8.02373C20.2621 9.33623 21.8683 10.8696 23.3892 12.5258C26.3121 10.0446 28.5683 7.24457 29.7308 4.5779C28.121 3.91668 26.4294 3.47521 24.7017 3.2654C21.3446 2.85626 17.939 3.34288 14.8308 4.67582ZM32.5204 5.99665C31.1079 9.1404 28.56 12.2321 25.4267 14.8946C26.3463 16.0309 27.1798 17.2342 27.9204 18.4946C28.7746 19.9737 29.5329 21.6883 30.2017 23.4862C33.9767 22.0633 37.9454 21.3591 41.6642 21.8092C41.5692 18.6277 40.6843 15.5197 39.0892 12.7654C37.497 9.99769 35.2392 7.67113 32.5204 5.99665ZM41.5038 24.9404C38.3038 24.505 34.7225 25.1071 31.2038 26.4487C31.8079 28.4008 32.3183 30.3571 32.7308 32.1342C33.1732 34.033 33.5643 35.9434 33.9038 37.8633C36.6409 35.8324 38.7869 33.1083 40.1204 29.9717C40.8079 28.3654 41.2725 26.6696 41.5038 24.9404ZM31.0329 39.6279C30.6595 37.352 30.2113 35.089 29.6892 32.8425C29.2902 31.1191 28.8351 29.4091 28.3246 27.7154C27.4725 28.1404 26.6329 28.605 25.81 29.105C20.785 32.1633 16.7642 36.3342 15.0683 40.2237C17.6167 41.2739 20.3608 41.7644 23.1152 41.662C25.8695 41.5596 28.5697 40.8666 31.0329 39.63V39.6279ZM12.2788 38.805C14.3642 34.1654 18.9246 29.6362 24.185 26.4362C25.1975 25.8196 26.2475 25.2446 27.3267 24.7237C26.6975 23.0092 25.9933 21.405 25.2142 20.0571C24.5455 18.9218 23.7927 17.8382 22.9621 16.8154C22.2405 17.3312 21.5012 17.8218 20.7454 18.2862C15.3913 21.5737 8.95793 23.6967 3.13293 22.9925C3.22876 26.1735 4.11438 29.2807 5.71001 32.0342C7.30201 34.8026 9.55984 37.1299 12.2788 38.805ZM3.29543 19.8591C3.65794 17.1177 4.60709 14.4866 6.07822 12.1451C7.54935 9.80359 9.50789 7.80667 11.8204 6.2904C13.5017 7.58154 15.1335 8.93598 16.7121 10.3508C18.0871 11.5841 19.5392 12.9758 20.9038 14.4446C20.3204 14.8508 19.7225 15.2466 19.1079 15.6237C14.01 18.755 8.20584 20.5258 3.29543 19.8591ZM11.2017 3.00498C15.3951 0.575496 20.2658 -0.422038 25.0767 0.163315C28.5299 0.576768 31.8391 1.78989 34.7414 3.70628C37.6436 5.62268 40.059 8.18954 41.7954 11.2029C43.5362 14.2132 44.551 17.5879 44.7593 21.059C44.9677 24.53 44.3637 28.0019 42.9954 31.1987C41.0975 35.6587 37.7985 39.379 33.5975 41.7966C22.885 47.98 9.18918 44.3092 3.00376 33.5987C-3.17957 22.8862 0.489178 9.18832 11.2017 3.00498Z" fill="current"/>
</svg>
