<svg width="45" height="45" viewBox="0 0 45 45" fill="none" xmlns="http://www.w3.org/2000/svg">
<path d="M41.7857 25.7143H25.7143V41.7857C25.7143 42.6382 25.3756 43.4558 24.7728 44.0586C24.17 44.6614 23.3525 45 22.5 45C21.6475 45 20.83 44.6614 20.2272 44.0586C19.6244 43.4558 19.2857 42.6382 19.2857 41.7857V25.7143H3.21429C2.3618 25.7143 1.54424 25.3756 0.941443 24.7728C0.338648 24.17 0 23.3525 0 22.5C0 21.6475 0.338648 20.83 0.941443 20.2272C1.54424 19.6244 2.3618 19.2857 3.21429 19.2857H19.2857V3.21429C19.2857 2.3618 19.6244 1.54424 20.2272 0.941442C20.83 0.338646 21.6475 0 22.5 0C23.3525 0 24.17 0.338646 24.7728 0.941442C25.3756 1.54424 25.7143 2.3618 25.7143 3.21429V19.2857H41.7857C42.6382 19.2857 43.4558 19.6244 44.0586 20.2272C44.6614 20.83 45 21.6475 45 22.5C45 23.3525 44.6614 24.17 44.0586 24.7728C43.4558 25.3756 42.6382 25.7143 41.7857 25.7143Z" fill="current"/>
</svg>
