<svg width="42" height="34" viewBox="0 0 42 34" fill="none" xmlns="http://www.w3.org/2000/svg">
<path d="M4.16667 0C1.85417 0 0 1.85417 0 4.16667V29.1667C0 30.2717 0.438987 31.3315 1.22039 32.1129C2.00179 32.8943 3.0616 33.3333 4.16667 33.3333H37.5C38.6051 33.3333 39.6649 32.8943 40.4463 32.1129C41.2277 31.3315 41.6667 30.2717 41.6667 29.1667V4.16667C41.6667 3.0616 41.2277 2.00179 40.4463 1.22039C39.6649 0.438987 38.6051 0 37.5 0H4.16667ZM4.16667 4.16667H18.75V8.60417C15.0833 9.5625 12.5 12.875 12.5 16.6667C12.5049 18.5122 13.1208 20.3041 14.2515 21.7626C15.3822 23.2212 16.964 24.2643 18.75 24.7292V29.1667H4.16667V25H10.4167V8.33333H4.16667V4.16667ZM22.9167 4.16667H37.5V8.33333H31.25V25H37.5V29.1667H22.9167V24.7292C26.5833 23.7708 29.1667 20.4583 29.1667 16.6667C29.1617 14.8212 28.5458 13.0293 27.4152 11.5707C26.2845 10.1121 24.7027 9.06899 22.9167 8.60417V4.16667ZM4.16667 12.5H6.25V20.8333H4.16667V12.5ZM35.4167 12.5H37.5V20.8333H35.4167V12.5ZM22.9167 13.0625C24.2083 13.8125 25 15.1875 25 16.6667C25 18.1458 24.2083 19.5208 22.9167 20.2708V13.0625ZM18.75 13.0625V20.2708C17.4583 19.5208 16.6667 18.1458 16.6667 16.6667C16.6667 15.1875 17.4583 13.8125 18.75 13.0625Z" fill="current"/>
</svg>