<svg width="50" height="50" viewBox="0 0 50 50" fill="none" xmlns="http://www.w3.org/2000/svg">
<path d="M25 0C20.0555 0 15.222 1.46622 11.1108 4.21326C6.99952 6.96029 3.79521 10.8648 1.90302 15.4329C0.0108317 20.0011 -0.484251 25.0277 0.480379 29.8773C1.44501 34.7268 3.82603 39.1813 7.32234 42.6777C10.8187 46.174 15.2732 48.555 20.1227 49.5196C24.9723 50.4842 29.9989 49.9892 34.5671 48.097C39.1352 46.2048 43.0397 43.0005 45.7867 38.8892C48.5338 34.778 50 29.9445 50 25C49.9922 18.372 47.3558 12.0176 42.6691 7.33093C37.9823 2.6442 31.628 0.00778394 25 0ZM45.4338 33.3064C41.9379 35.737 37.8133 37.104 33.5577 37.2423C29.302 37.3806 25.0973 36.2843 21.451 34.0858L25.848 26.4706H47.0098C46.8546 28.819 46.3225 31.1271 45.4338 33.3064ZM15.2696 5.20588C17.3794 4.16559 19.6428 3.47127 21.973 3.14951C25.8265 4.96129 29.0732 7.84967 31.3213 11.466C33.5694 15.0823 34.7227 19.272 34.6422 23.5294H25.848L15.2696 5.20588ZM47.0098 23.5294H37.5833C37.6484 19.5744 36.7752 15.6603 35.0352 12.1079C33.2953 8.55561 30.7381 5.46624 27.5735 3.09314C32.687 3.70094 37.4275 6.07562 40.9763 9.80696C44.525 13.5383 46.6591 18.3919 47.0098 23.5294ZM12.7255 6.68137L17.4338 14.8358C13.9766 16.7576 11.0238 19.4711 8.81742 22.7541C6.61103 26.037 5.2138 29.796 4.74021 33.723C2.70198 28.9928 2.38467 23.6982 3.84337 18.7584C5.30207 13.8186 8.44466 9.5456 12.7255 6.68137ZM7.59805 38.527C7.24439 34.2869 8.12449 30.0351 10.1323 26.2839C12.1401 22.5326 15.1899 19.4421 18.9142 17.3848L23.3015 25L12.7255 43.3186C10.7731 42.0033 9.04238 40.3859 7.59805 38.527ZM25 47.0588C21.6255 47.0624 18.2957 46.2874 15.2696 44.7941L19.9804 36.6348C23.3712 38.6672 27.1952 39.8676 31.1393 40.1377C35.0834 40.4078 39.0353 39.7399 42.6716 38.1887C40.6205 40.9415 37.9546 43.177 34.8865 44.717C31.8184 46.257 28.4329 47.0589 25 47.0588Z" fill="current"/>
</svg>