<svg width="34" height="38" viewBox="0 0 34 38" fill="none" xmlns="http://www.w3.org/2000/svg">
<path d="M30.0518 3.6001C25.4522 -0.999512 17.962 -0.999512 13.3672 3.6001L0.623092 16.3345C0.540085 16.4175 0.496139 16.5298 0.496139 16.647C0.496139 16.7642 0.540085 16.8765 0.623092 16.9595L2.42485 18.7612C2.50721 18.8432 2.61869 18.8893 2.73491 18.8893C2.85113 18.8893 2.96261 18.8432 3.04497 18.7612L15.7891 6.02685C17.3711 4.44482 19.4756 3.57568 21.712 3.57568C23.9483 3.57568 26.0528 4.44482 27.6299 6.02685C29.212 7.60889 30.0811 9.71338 30.0811 11.9448C30.0811 14.1812 29.212 16.2808 27.6299 17.8628L14.6416 30.8462L12.5372 32.9507C10.5694 34.9185 7.37114 34.9185 5.40337 32.9507C4.45122 31.9985 3.92876 30.7339 3.92876 29.3862C3.92876 28.0386 4.45122 26.7739 5.40337 25.8218L18.2891 12.9409C18.6163 12.6187 19.0459 12.438 19.5049 12.438H19.5098C19.9688 12.438 20.3936 12.6187 20.7159 12.9409C21.043 13.2681 21.2188 13.6978 21.2188 14.1567C21.2188 14.6108 21.0381 15.0405 20.7159 15.3628L10.1836 25.8853C10.1006 25.9683 10.0567 26.0806 10.0567 26.1978C10.0567 26.3149 10.1006 26.4272 10.1836 26.5103L11.9854 28.312C12.0678 28.394 12.1792 28.44 12.2955 28.44C12.4117 28.44 12.5232 28.394 12.6055 28.312L23.1329 17.7847C24.1045 16.813 24.6368 15.5239 24.6368 14.1519C24.6368 12.7798 24.0997 11.4858 23.1329 10.519C21.126 8.51221 17.8643 8.51709 15.8575 10.519L14.6075 11.7739L2.97661 23.3999C2.18721 24.1847 1.56146 25.1184 1.13567 26.1468C0.70987 27.1753 0.492492 28.278 0.496139 29.3911C0.496139 31.6519 1.37993 33.7759 2.97661 35.3726C4.63188 37.0229 6.79985 37.8481 8.96782 37.8481C11.1358 37.8481 13.3038 37.0229 14.9541 35.3726L30.0518 20.2847C32.2735 18.0581 33.504 15.0942 33.504 11.9448C33.5088 8.79053 32.2784 5.82666 30.0518 3.6001Z" fill="white"/>
</svg>
