<svg xmlns="http://www.w3.org/2000/svg" width="56" height="56" viewBox="0 0 56 56" fill="none">
  <path d="M39.1724 11.2412C37.6908 11.2412 36.27 11.8298 35.2223 12.8774C34.1747 13.925 33.5862 15.3459 33.5862 16.8274C33.5862 18.309 34.1747 19.7298 35.2223 20.7775C36.27 21.8251 37.6908 22.4136 39.1724 22.4136C40.6539 22.4136 42.0748 21.8251 43.1224 20.7775C44.1701 19.7298 44.7586 18.309 44.7586 16.8274C44.7586 15.3459 44.1701 13.925 43.1224 12.8774C42.0748 11.8298 40.6539 11.2412 39.1724 11.2412Z" fill="#DFDFDF"/>
  <path fill-rule="evenodd" clip-rule="evenodd" d="M0.0689697 5.65505C0.0689697 4.1735 0.657515 2.75263 1.70513 1.70501C2.75275 0.657393 4.17362 0.0688477 5.65518 0.0688477L50.3448 0.0688477C51.8264 0.0688477 53.2473 0.657393 54.2949 1.70501C55.3425 2.75263 55.931 4.1735 55.931 5.65505V50.3447C55.931 51.2672 55.7033 52.1755 55.2681 52.9888C54.7901 53.8785 54.0798 54.6219 53.2129 55.14C52.3459 55.658 51.3548 55.9314 50.3448 55.9309H5.65518C4.17362 55.9309 2.75275 55.3424 1.70513 54.2948C0.657515 53.2471 0.0689697 51.8263 0.0689697 50.3447L0.0689697 5.65505ZM18.131 11.7701L16.8276 10.4666L3.79311 23.5011V5.65505C3.79311 5.1612 3.98929 4.68758 4.3385 4.33837C4.6877 3.98917 5.16133 3.79299 5.65518 3.79299H50.3448C50.8387 3.79299 51.3123 3.98917 51.6615 4.33837C52.0107 4.68758 52.2069 5.1612 52.2069 5.65505V37.3102H43.6675L18.1459 11.785L18.131 11.7701Z" fill="#DFDFDF"/>
</svg>