<svg xmlns="http://www.w3.org/2000/svg" width="16" height="16" viewBox="0 0 16 16" fill="none">
  <path d="M8.0001 12.0001C9.06096 12.0001 10.0784 11.5787 10.8285 10.8285C11.5787 10.0784 12.0001 9.06096 12.0001 8.0001C12.0001 6.93923 11.5787 5.92182 10.8285 5.17167C10.0784 4.42153 9.06096 4.0001 8.0001 4.0001C6.93923 4.0001 5.92182 4.42153 5.17167 5.17167C4.42153 5.92182 4.0001 6.93923 4.0001 8.0001C4.0001 9.06096 4.42153 10.0784 5.17167 10.8285C5.92182 11.5787 6.93923 12.0001 8.0001 12.0001ZM8.0001 1.6001C6.30271 1.6001 4.67485 2.27438 3.47461 3.47461C2.27438 4.67485 1.6001 6.30271 1.6001 8.0001C1.6001 9.69748 2.27438 11.3253 3.47461 12.5256C4.67485 13.7258 6.30271 14.4001 8.0001 14.4001C9.69748 14.4001 11.3253 13.7258 12.5256 12.5256C13.7258 11.3253 14.4001 9.69748 14.4001 8.0001C14.4001 6.30271 13.7258 4.67485 12.5256 3.47461C11.3253 2.27438 9.69748 1.6001 8.0001 1.6001ZM2.4001 8.0001C2.4001 7.2647 2.54495 6.53649 2.82637 5.85707C3.1078 5.17765 3.52029 4.56031 4.0403 4.0403C4.56031 3.52029 5.17765 3.1078 5.85707 2.82637C6.53649 2.54495 7.2647 2.4001 8.0001 2.4001C8.7355 2.4001 9.4637 2.54495 10.1431 2.82637C10.8225 3.1078 11.4399 3.52029 11.9599 4.0403C12.4799 4.56031 12.8924 5.17765 13.1738 5.85707C13.4552 6.53649 13.6001 7.2647 13.6001 8.0001C13.6001 9.48531 13.0101 10.9097 11.9599 11.9599C10.9097 13.0101 9.48531 13.6001 8.0001 13.6001C6.51489 13.6001 5.0905 13.0101 4.0403 11.9599C2.9901 10.9097 2.4001 9.48531 2.4001 8.0001Z" fill="#FFC06E"/>
</svg>