<svg width="25" height="25" viewBox="0 0 50 50" fill="none" xmlns="http://www.w3.org/2000/svg">
<path d="M47.8931 35.8423L43.594 31.5432C43.2176 31.194 42.9597 30.7359 42.8563 30.2331C42.753 29.7302 42.8092 29.2076 43.0173 28.7383C43.9314 26.775 44.4141 24.6386 44.4328 22.4731C44.445 22.3861 44.445 22.2979 44.4328 22.2109C44.4418 19.0742 43.4703 16.013 41.6541 13.4555C38.1443 8.5502 33.4927 4.57343 28.1015 1.86885C24.6816 0.194724 20.8257 -0.374107 17.0682 0.241194C13.3106 0.856496 9.83748 2.62545 7.13022 5.30289L5.37388 7.05923C2.66828 9.77676 0.882035 13.2736 0.266098 17.0586C-0.349838 20.8435 0.235487 24.7264 1.93984 28.1615L2.20198 28.6072C0.803032 30.0585 0.0147863 31.9916 0 34.0073C0.0104082 35.3982 0.389561 36.7615 1.09879 37.9581C1.80801 39.1548 2.82193 40.1418 4.03712 40.8187C5.25232 41.4956 6.6253 41.8381 8.01604 41.8112C9.40677 41.7843 10.7655 41.389 11.9536 40.6656C12.4255 41.0326 12.8449 41.4258 13.3167 41.7666C14.309 42.4565 15.3833 43.0201 16.5149 43.4443H16.7508C17.2226 43.6278 17.7207 43.7851 18.245 43.9424H18.6382C19.454 44.1519 20.2878 44.2836 21.1285 44.3356H22.7538C23.3043 44.3356 23.8286 44.3356 24.3791 44.1783H24.8247C26.1136 43.957 27.366 43.5601 28.5471 42.9987C29.0178 42.8092 29.5333 42.7603 30.0312 42.858C30.5291 42.9557 30.9879 43.1958 31.352 43.5492L35.1793 47.3764C36.8398 49.0428 39.0919 49.9851 41.4444 49.9978C43.4177 49.9767 45.3025 49.1757 46.6872 47.7696L47.6834 46.7735C49.1293 45.3345 49.9594 43.3899 49.9986 41.3503C50.0377 39.3107 49.2827 37.3357 47.8931 35.8423ZM7.78557 36.6811C7.26711 36.6811 6.76029 36.5274 6.3292 36.2393C5.89811 35.9513 5.56212 35.5419 5.36371 35.0629C5.1653 34.5839 5.11339 34.0568 5.21454 33.5483C5.31569 33.0398 5.56535 32.5727 5.93196 32.2061C6.29857 31.8395 6.76566 31.5898 7.27416 31.4887C7.78266 31.3875 8.30974 31.4394 8.78874 31.6378C9.26774 31.8362 9.67715 32.1722 9.96519 32.6033C10.2532 33.0344 10.407 33.5412 10.407 34.0597C10.407 34.7549 10.1308 35.4217 9.63919 35.9133C9.14758 36.4049 8.48081 36.6811 7.78557 36.6811ZM15.9119 37.0481L15.2304 36.5238C15.5033 35.7307 15.645 34.8984 15.6498 34.0597C15.6498 31.974 14.8212 29.9737 13.3464 28.4989C11.8716 27.024 9.87129 26.1955 7.78557 26.1955H6.78944L6.55351 25.7761C5.33424 23.3239 4.91371 20.5513 5.35096 17.8479C5.78822 15.1444 7.0613 12.6458 8.99142 10.703L10.7478 8.94664C12.7155 7.06066 15.2223 5.83505 17.9192 5.44038C20.6161 5.04571 23.369 5.50162 25.7946 6.74466C30.1981 8.94721 34.0231 12.1527 36.9618 16.1031L15.9119 37.0481ZM44.1707 43.2608L43.2008 44.257C42.0998 45.358 40.3959 45.1482 38.9803 43.7327L35.153 39.9316C34.026 38.8119 32.5862 38.0598 31.0233 37.7743C29.4604 37.4889 27.8477 37.6835 26.3975 38.3326C25.5711 38.7376 24.6868 39.0117 23.7761 39.1452C23.2752 39.2409 22.7657 39.2848 22.2557 39.2763H21.1023L39.1114 21.2672C39.2949 23.0633 38.9868 24.8755 38.2201 26.5101C37.571 27.9602 37.3764 29.5729 37.6618 31.1358C37.9473 32.6987 38.6994 34.1385 39.8191 35.2655L44.1182 39.5909C44.6056 40.074 44.8841 40.729 44.8939 41.4151C44.9037 42.1013 44.6441 42.764 44.1707 43.2608Z" fill="current"/>
</svg>
