<svg width="22" height="24" viewBox="0 0 42 34" fill="none" xmlns="http://www.w3.org/2000/svg">
<path d="M4.16667 3.66667H3.66667V4.16667V8.33333V8.83333H4.16667H9.91667V24.5H4.16667H3.66667V25V29.1667V29.6667H4.16667H18.75H19.25V29.1667V24.7292V24.3426L18.8759 24.2453C17.1968 23.8083 15.7097 22.8276 14.6467 21.4563C13.5838 20.0852 13.0048 18.4008 13 16.6661C13.0003 13.1044 15.4278 9.98926 18.8764 9.08792L19.25 8.99028V8.60417V4.16667V3.66667H18.75H4.16667ZM22.9167 3.66667H22.4167V4.16667V8.60417V8.99069L22.7907 9.08805C24.4698 9.52505 25.957 10.5057 27.02 11.877C28.0829 13.2481 28.6619 14.9325 28.6667 16.6673C28.6664 20.229 26.2389 23.3441 22.7902 24.2454L22.4167 24.3431V24.7292V29.1667V29.6667H22.9167H37.5H38V29.1667V25V24.5H37.5H31.75V8.83333H37.5H38V8.33333V4.16667V3.66667H37.5H22.9167ZM4.16667 12H3.66667V12.5V20.8333V21.3333H4.16667H6.25H6.75V20.8333V12.5V12H6.25H4.16667ZM35.4167 12H34.9167V12.5V20.8333V21.3333H35.4167H37.5H38V20.8333V12.5V12H37.5H35.4167ZM23.1677 12.6301L22.4167 12.194V13.0625V20.2708V21.1393L23.1677 20.7032C24.6127 19.8642 25.5 18.325 25.5 16.6667C25.5 15.0083 24.6127 13.4691 23.1677 12.6301ZM19.25 13.0625V12.194L18.4989 12.6301C17.054 13.4691 16.1667 15.0083 16.1667 16.6667C16.1667 18.325 17.054 19.8642 18.4989 20.7032L19.25 21.1393V20.2708V13.0625ZM0.5 4.16667C0.5 2.13031 2.13031 0.5 4.16667 0.5H37.5C38.4725 0.5 39.4051 0.886308 40.0927 1.57394C40.7804 2.26158 41.1667 3.19421 41.1667 4.16667V29.1667C41.1667 30.1391 40.7804 31.0718 40.0927 31.7594C39.4051 32.447 38.4725 32.8333 37.5 32.8333H4.16667C3.19421 32.8333 2.26158 32.447 1.57394 31.7594C0.886308 31.0718 0.5 30.1391 0.5 29.1667V4.16667Z" fill="current" stroke="black"/>
</svg>
