        <svg
          width="14"
          height="15"
          viewBox="0 0 21 22"
          fill="none"
          xmlns="http://www.w3.org/2000/svg"
        >
          <path
            d="M14 3.99985L16.293 1.70685C16.4805 1.51938 16.7348 1.41406 17 1.41406C17.2652 1.41406 17.5195 1.51938 17.707 1.70685L19.293 3.29285C19.4805 3.48038 19.5858 3.73468 19.5858 3.99985C19.5858 4.26501 19.4805 4.51932 19.293 4.70685L17 6.99985M14 3.99985L8.293 9.70685C8.10545 9.89434 8.00006 10.1487 8 10.4138V11.9998C8 12.2651 8.10536 12.5194 8.29289 12.707C8.48043 12.8945 8.73478 12.9998 9 12.9998H10.586C10.8512 12.9998 11.1055 12.8944 11.293 12.7068L17 6.99985M14 3.99985L17 6.99985M4 12.9998H3C2.46957 12.9998 1.96086 13.2106 1.58579 13.5856C1.21071 13.9607 1 14.4694 1 14.9998C1 15.5303 1.21071 16.039 1.58579 16.4141C1.96086 16.7891 2.46957 16.9998 3 16.9998H17C17.5304 16.9998 18.0391 17.2106 18.4142 17.5856C18.7893 17.9607 19 18.4694 19 18.9998C19 19.5303 18.7893 20.039 18.4142 20.4141C18.0391 20.7891 17.5304 20.9998 17 20.9998H13"
            stroke="white"
            stroke-width="1.5"
            stroke-linecap="round"
            stroke-linejoin="round"
          />
        </svg>