<svg width="35" height="41" viewBox="0 0 35 41" fill="none" xmlns="http://www.w3.org/2000/svg">
<g id="&#236;&#149;&#140;&#235;&#166;&#188; 2">
<path id="Vector" d="M35 33.0556V35H0V33.0556L3.88889 29.1667V17.5C3.88889 11.4722 7.83611 6.16389 13.6111 4.45278V3.88889C13.6111 2.85749 14.0208 1.86834 14.7501 1.13903C15.4794 0.409721 16.4686 0 17.5 0C18.5314 0 19.5205 0.409721 20.2499 1.13903C20.9792 1.86834 21.3889 2.85749 21.3889 3.88889V4.45278C27.1639 6.16389 31.1111 11.4722 31.1111 17.5V29.1667L35 33.0556ZM21.3889 36.9444C21.3889 37.9758 20.9792 38.965 20.2499 39.6943C19.5205 40.4236 18.5314 40.8333 17.5 40.8333C16.4686 40.8333 15.4794 40.4236 14.7501 39.6943C14.0208 38.965 13.6111 37.9758 13.6111 36.9444" fill="black"/>
</g>
</svg>
