<svg width="35" height="41" viewBox="0 0 35 41" fill="none" xmlns="http://www.w3.org/2000/svg">
<g id="&#236;&#149;&#140;&#235;&#166;&#188; 2">
<path id="Vector" d="M31.1111 19.0361C30.1389 19.2889 29.1667 19.4445 28.1944 19.4445C25.3597 19.4393 22.6425 18.3109 20.638 16.3064C18.6335 14.302 17.5051 11.5848 17.5 8.75001C17.5 5.89168 18.6278 3.30557 20.4167 1.38057C20.0638 0.948006 19.6189 0.599619 19.1143 0.36079C18.6097 0.121962 18.0582 -0.00129209 17.5 1.02136e-05C15.3611 1.02136e-05 13.6111 1.75001 13.6111 3.8889V4.45279C7.83611 6.1639 3.88889 11.4722 3.88889 17.5V29.1667L0 33.0556V35H35V33.0556L31.1111 29.1667V19.0361ZM17.5 40.8333C19.6583 40.8333 21.3889 39.1028 21.3889 36.9445H13.6111C13.6111 37.9759 14.0208 38.965 14.7501 39.6943C15.4794 40.4236 16.4686 40.8333 17.5 40.8333Z" fill="black"/>
<circle id="Ellipse 23" cx="28.1945" cy="8.75087" r="6.80556" fill="#FF0000"/>
<circle id="Ellipse 24" cx="28.1945" cy="8.75087" r="6.80556" fill="#FF0000"/>
</g>
</svg>
