<svg width="25" height="25" viewBox="0 0 50 50" fill="none" xmlns="http://www.w3.org/2000/svg">
<path d="M25 0C20.0555 0 15.222 1.46622 11.1108 4.21326C6.99952 6.96029 3.79521 10.8648 1.90302 15.4329C0.0108321 20.0011 -0.484251 25.0277 0.480379 29.8773C1.44501 34.7268 3.82603 39.1814 7.32234 42.6777C10.8187 46.174 15.2732 48.555 20.1227 49.5196C24.9723 50.4842 29.9989 49.9892 34.5671 48.097C39.1352 46.2048 43.0397 43.0005 45.7867 38.8892C48.5338 34.778 50 29.9445 50 25C49.993 18.3717 47.3568 12.017 42.6699 7.33006C37.983 2.64317 31.6283 0.00699956 25 0ZM11.5601 41.3245C11.7572 41.0841 11.9543 40.8606 12.1418 40.625C12.2997 40.4275 12.4171 40.2009 12.4873 39.9581C12.5576 39.7153 12.5793 39.461 12.5513 39.2097C12.5233 38.9585 12.4461 38.7153 12.3241 38.4939C12.202 38.2725 12.0376 38.0773 11.8402 37.9195C11.6427 37.7616 11.4161 37.6442 11.1733 37.574C10.9304 37.5037 10.6761 37.482 10.4249 37.51C10.1737 37.538 9.93042 37.6152 9.70903 37.7372C9.48765 37.8593 9.29246 38.0237 9.13462 38.2211L8.81251 38.6106C5.60077 34.8026 3.83912 29.9815 3.83912 25C3.83912 20.0184 5.60077 15.1974 8.81251 11.3894L9.13462 11.7788C9.29246 11.9763 9.48765 12.1407 9.70903 12.2628C9.93042 12.3848 10.1737 12.462 10.4249 12.49C10.6761 12.518 10.9304 12.4963 11.1733 12.426C11.4161 12.3558 11.6427 12.2384 11.8402 12.0805C12.0376 11.9227 12.202 11.7275 12.3241 11.5061C12.4461 11.2847 12.5233 11.0415 12.5513 10.7902C12.5793 10.539 12.5576 10.2847 12.4873 10.0419C12.4171 9.79906 12.2997 9.57245 12.1418 9.375C11.9543 9.13461 11.7572 8.89423 11.5601 8.67548C15.3432 5.55351 20.0951 3.84593 25 3.84593C29.9049 3.84593 34.6568 5.55351 38.4399 8.67548C38.2428 8.91586 38.0457 9.13702 37.8582 9.375C37.7003 9.57245 37.5829 9.79906 37.5127 10.0419C37.4424 10.2847 37.4207 10.539 37.4487 10.7902C37.4767 11.0415 37.5539 11.2847 37.6759 11.5061C37.798 11.7275 37.9624 11.9227 38.1599 12.0805C38.3573 12.2384 38.5839 12.3558 38.8268 12.426C39.0696 12.4963 39.3239 12.518 39.5751 12.49C39.8263 12.462 40.0696 12.3848 40.291 12.2628C40.5124 12.1407 40.7075 11.9763 40.8654 11.7788L41.1875 11.3894C44.3992 15.1974 46.1609 20.0184 46.1609 25C46.1609 29.9815 44.3992 34.8026 41.1875 38.6106L40.8654 38.2211C40.7107 38.0152 40.5161 37.8424 40.2934 37.7131C40.0706 37.5838 39.8241 37.5005 39.5685 37.4683C39.313 37.436 39.0535 37.4554 38.8056 37.5254C38.5577 37.5954 38.3264 37.7144 38.1253 37.8755C37.9243 38.0366 37.7577 38.2364 37.6354 38.4631C37.5131 38.6898 37.4375 38.9388 37.4133 39.1952C37.3891 39.4517 37.4166 39.7104 37.4942 39.956C37.5719 40.2016 37.6981 40.4291 37.8654 40.625C38.0529 40.8654 38.25 41.0937 38.4471 41.3245C34.6641 44.4465 29.9121 46.1541 25.0072 46.1541C20.1023 46.1541 15.3504 44.4465 11.5673 41.3245H11.5601ZM17.2813 29.1635C17.0424 30.582 16.6821 31.9773 16.2043 33.3341C16.0341 33.8152 15.6798 34.2089 15.2193 34.4286C14.7588 34.6484 14.2298 34.6762 13.7488 34.506C13.2678 34.3358 12.8741 33.9814 12.6543 33.5209C12.4345 33.0604 12.4067 32.5315 12.5769 32.0505C12.9822 30.9053 13.287 29.7269 13.488 28.5288C13.5276 28.2779 13.6165 28.0373 13.7496 27.8209C13.8827 27.6045 14.0574 27.4167 14.2635 27.2682C14.4696 27.1197 14.7032 27.0135 14.9505 26.9558C15.1979 26.8981 15.4543 26.8899 15.7049 26.9318C15.9554 26.9738 16.1952 27.0649 16.4104 27.2C16.6255 27.3351 16.8117 27.5115 16.9583 27.719C17.1049 27.9265 17.2089 28.161 17.2643 28.4089C17.3197 28.6568 17.3255 28.9133 17.2813 29.1635ZM17.2813 20.8365C17.3654 21.3396 17.2463 21.8554 16.9501 22.2706C16.6539 22.6858 16.2049 22.9663 15.7019 23.0505C15.597 23.0675 15.4909 23.0764 15.3846 23.0769C14.93 23.0763 14.4903 22.9147 14.1436 22.6208C13.7968 22.3268 13.5654 21.9195 13.4904 21.4711C13.2894 20.2731 12.9846 19.0947 12.5793 17.9495C12.4091 17.4685 12.4369 16.9395 12.6567 16.479C12.8765 16.0185 13.2702 15.6642 13.7512 15.494C14.2322 15.3238 14.7612 15.3516 15.2217 15.5714C15.6822 15.7911 16.0365 16.1848 16.2067 16.6659C16.6836 18.0228 17.0431 19.4181 17.2813 20.8365ZM36.25 34.5048C35.7693 34.6749 35.2407 34.6472 34.7804 34.4277C34.3202 34.2081 33.966 33.8148 33.7957 33.3341C33.318 31.9773 32.9577 30.582 32.7188 29.1635C32.6745 28.9133 32.6803 28.6568 32.7357 28.4089C32.7911 28.161 32.8952 27.9265 33.0417 27.719C33.1883 27.5115 33.3745 27.3351 33.5897 27.2C33.8048 27.0649 34.0446 26.9738 34.2951 26.9318C34.5457 26.8899 34.8021 26.8981 35.0495 26.9558C35.2969 27.0135 35.5304 27.1197 35.7365 27.2682C35.9426 27.4167 36.1173 27.6045 36.2504 27.8209C36.3835 28.0373 36.4724 28.2779 36.512 28.5288C36.713 29.7269 37.0178 30.9053 37.4231 32.0505C37.5073 32.2887 37.5437 32.5411 37.5303 32.7933C37.5169 33.0456 37.4539 33.2927 37.345 33.5207C37.2361 33.7486 37.0833 33.9528 36.8954 34.1217C36.7075 34.2905 36.4882 34.4207 36.25 34.5048ZM32.7188 20.8365C32.9577 19.418 33.318 18.0227 33.7957 16.6659C33.9659 16.1848 34.3202 15.7911 34.7807 15.5714C35.2412 15.3516 35.7702 15.3238 36.2512 15.494C36.7322 15.6642 37.1259 16.0185 37.3457 16.479C37.5655 16.9395 37.5933 17.4685 37.4231 17.9495C37.0178 19.0947 36.713 20.2731 36.512 21.4711C36.4369 21.9199 36.2052 22.3275 35.8579 22.6215C35.5107 22.9155 35.0704 23.0769 34.6154 23.0769C34.5083 23.0765 34.4014 23.0676 34.2957 23.0505C33.7931 22.9657 33.3447 22.685 33.0491 22.2698C32.7534 21.8547 32.6346 21.3392 32.7188 20.8365Z" fill="current"/>
</svg>
